<?xml version="1.0" standalone="no"?><svg xmlns="http://www.w3.org/2000/svg" viewBox="0 0 1440 320"><path fill="#ffd700" fill-opacity="1" d="M0,192L18.5,186.7C36.9,181,74,171,111,192C147.7,213,185,267,222,272C258.5,277,295,235,332,202.7C369.2,171,406,149,443,165.3C480,181,517,235,554,234.7C590.8,235,628,181,665,165.3C701.5,149,738,171,775,154.7C812.3,139,849,85,886,101.3C923.1,117,960,203,997,234.7C1033.8,267,1071,245,1108,229.3C1144.6,213,1182,203,1218,176C1255.4,149,1292,107,1329,112C1366.2,117,1403,171,1422,197.3L1440,224L1440,320L1421.5,320C1403.1,320,1366,320,1329,320C1292.3,320,1255,320,1218,320C1181.5,320,1145,320,1108,320C1070.8,320,1034,320,997,320C960,320,923,320,886,320C849.2,320,812,320,775,320C738.5,320,702,320,665,320C627.7,320,591,320,554,320C516.9,320,480,320,443,320C406.2,320,369,320,332,320C295.4,320,258,320,222,320C184.6,320,148,320,111,320C73.8,320,37,320,18,320L0,320Z"></path></svg>